<svg id="Layer_1" data-name="Layer 1" xmlns="http://www.w3.org/2000/svg" width="48" height="48" viewBox="0 0 48 48"><rect width="48" height="48" style="fill:#cd6799"/><path d="M40.44,26.25a8.12,8.12,0,0,0-3.62.84A7.58,7.58,0,0,1,36,25.21a5.08,5.08,0,0,1-.07-1.58,13.26,13.26,0,0,1,.47-1.7c0-.08-.09-.42-.89-.43s-1.5.16-1.58.37a9.75,9.75,0,0,0-.34,1.19,27.53,27.53,0,0,1-2.44,4.71,5.23,5.23,0,0,1-.56-1.38,5.07,5.07,0,0,1-.07-1.58,15.26,15.26,0,0,1,.47-1.7c0-.07-.08-.42-.89-.42s-1.5.15-1.58.36-.16.71-.33,1.19-2.12,4.84-2.63,6c-.27.57-.49,1-.65,1.35h0l0,.06-.22.41h0c-.11.2-.23.38-.29.38a2.52,2.52,0,0,1,0-1.24c.29-1.52,1-3.87,1-3.95s.13-.45-.46-.66a.72.72,0,0,0-.82.14c-.05,0-.09.12-.09.12s.64-2.64-1.21-2.64c-1.16,0-2.75,1.26-3.54,2.4l-2.69,1.47-1.29.71-.09-.1C13,26.28,8.82,24.59,9,21.39c.06-1.17.47-4.24,7.94-8,6.15-3,11-2.19,11.89-.33,1.22,2.66-2.62,7.6-9,8.32a4.77,4.77,0,0,1-4-1c-.34-.36-.39-.38-.52-.31s-.07.44,0,.63a3.79,3.79,0,0,0,2.3,1.8,12.21,12.21,0,0,0,7.45-.74c3.85-1.49,6.86-5.63,6-9.1S24.32,8,18.79,10a27.77,27.77,0,0,0-9.42,5.41c-3,2.85-3.53,5.33-3.33,6.36.71,3.69,5.78,6.08,7.82,7.86l-.28.15c-1,.5-4.89,2.53-5.85,4.67-1.1,2.42.17,4.16,1,4.4a6.25,6.25,0,0,0,6.73-2.73,6.77,6.77,0,0,0,.6-6.22l0,0,.8-.47c.52-.3,1-.59,1.47-.82a9.29,9.29,0,0,0-.52,2.66A5.52,5.52,0,0,0,19,35a1.3,1.3,0,0,0,1,.32c.86,0,1.25-.72,1.68-1.56.53-1,1-2.25,1-2.25s-.59,3.26,1,3.26c.58,0,1.18-.76,1.44-1.15h0l0-.07.1-.16h0c.23-.41.76-1.34,1.54-2.88,1-2,2-4.47,2-4.47a12.68,12.68,0,0,0,.39,1.61A14.42,14.42,0,0,0,30,29.56c-.23.32-.38.51-.38.51h0c-.19.25-.4.52-.62.79a22.12,22.12,0,0,0-1.88,2.35.63.63,0,0,0,.17.86,1.61,1.61,0,0,0,1,.16,4.77,4.77,0,0,0,1.47-.33A5,5,0,0,0,31,33.23a2.82,2.82,0,0,0,1.22-2.49A5,5,0,0,0,31.73,29l.21-.31a33.85,33.85,0,0,0,2.19-3.78,13.16,13.16,0,0,0,.39,1.61,9.67,9.67,0,0,0,.71,1.61,7,7,0,0,0-2.14,2.75c-.46,1.33-.1,1.93.58,2.07a2,2,0,0,0,1.07-.22A4.94,4.94,0,0,0,36.09,32a3.05,3.05,0,0,0,1.49-2.47,4.38,4.38,0,0,0-.34-1.46,7.65,7.65,0,0,1,3.88-.45c3.48.41,4.17,2.58,4,3.49a2.36,2.36,0,0,1-1.11,1.57c-.24.15-.32.2-.3.31s.15.15.35.13A2.74,2.74,0,0,0,46,30.72C46.11,28.57,44.06,26.22,40.44,26.25Zm-26.83,9c-1.15,1.26-2.76,1.73-3.45,1.33s-.45-2.29,1-3.62a19.27,19.27,0,0,1,2.71-2l.72-.43.08,0h0l.18-.11A5,5,0,0,1,13.61,35.29ZM22,29.58c-.4,1-1.25,3.48-1.76,3.34s-.71-2-.08-3.89a8.77,8.77,0,0,1,1.36-2.51c.63-.7,1.32-.93,1.49-.65S22.27,29,22,29.58ZM29,32.89c-.17.09-.33.15-.4.11s.07-.15.07-.15.87-.93,1.21-1.36c.2-.25.44-.54.68-.87v.1A2.89,2.89,0,0,1,29,32.89Zm5.35-1.22c-.13-.08-.1-.38.31-1.29a4.75,4.75,0,0,1,1.19-1.53,1.83,1.83,0,0,1,.12.67A2.2,2.2,0,0,1,34.3,31.67Z" style="fill:#fff"/></svg>