<svg xmlns="http://www.w3.org/2000/svg" width="48" height="48" viewBox="0 0 48 48"><rect width="48" height="48" style="fill:#214674"/><path d="M5.71,26.31c0-.68-.44-1.41-1.71-1.46v-1.7c1.27,0,1.71-.78,1.71-1.46,0-1.22-.2-2-.2-3.41,0-2.15.78-2.83,2.53-2.83h4.68V17H8.92c-.83,0-1.07.29-1.07,1.36s.1,2.05.1,3.22c0,1.51-.49,2.09-1.47,2.34V24c1,.25,1.47.83,1.47,2.34,0,1.22-.1,2.15-.1,3.22S8.09,31,8.92,31h.39V32.5H8c-1.75,0-2.53-.68-2.53-2.82C5.51,28.26,5.71,27.53,5.71,26.31ZM9.85,15.6h2.92v11c0,.63.29.83.54.83a1,1,0,0,0,.34-.05L14,29.48a3.71,3.71,0,0,1-1.46.24c-2,0-2.68-1.31-2.68-3.31Zm8.23,3.8c2.78,0,4.19,2,4.19,4.72a6.51,6.51,0,0,1-.1,1.22h-6a2.37,2.37,0,0,0,2.58,2.14,4,4,0,0,0,2.15-.63l1,1.75a6.57,6.57,0,0,1-3.51,1.12,4.79,4.79,0,0,1-5-5.16A4.83,4.83,0,0,1,18.08,19.4Zm1.71,4.14c0-1.12-.49-1.95-1.66-1.95-.93,0-1.71.63-1.9,1.95Zm4.14,3a4.12,4.12,0,0,0,2.53,1c.88,0,1.27-.34,1.27-.83s-1-1-2-1.36c-1.17-.44-2.58-1.27-2.58-2.88,0-1.8,1.51-3.07,3.75-3.07a5.6,5.6,0,0,1,3.46,1.27L29,22.47A3.44,3.44,0,0,0,27,21.64c-.73,0-1.12.29-1.12.78s.92.87,2,1.26c1.26.44,2.68,1.17,2.68,3S29,29.82,26.41,29.82a6.18,6.18,0,0,1-3.75-1.36Zm7.94,0a4.14,4.14,0,0,0,2.53,1c.88,0,1.27-.34,1.27-.83s-1-1-2-1.36c-1.17-.44-2.58-1.27-2.58-2.88,0-1.8,1.51-3.07,3.75-3.07a5.6,5.6,0,0,1,3.46,1.27L37,22.47a3.44,3.44,0,0,0-2.09-.83c-.73,0-1.12.29-1.12.78s.92.87,1.9,1.26c1.27.44,2.68,1.17,2.68,3s-1.41,3.16-4.05,3.16a6.22,6.22,0,0,1-3.75-1.36Zm7.21,4.38c.83,0,1.07-.29,1.07-1.41s-.1-2.05-.1-3.22c0-1.51.49-2.09,1.47-2.33v-.1c-1-.25-1.47-.83-1.47-2.34,0-1.17.1-2.19.1-3.22S40,17,39.08,17h-.39V15.45H40c1.75,0,2.53.68,2.53,2.83,0,1.36-.2,2.14-.2,3.41,0,.68.44,1.41,1.71,1.46v1.7c-1.27,0-1.71.78-1.71,1.46,0,1.27.2,2,.2,3.41,0,2.15-.78,2.83-2.53,2.83H38.69V31Z" style="fill:#fff"/></svg>